<svg xmlns="http://www.w3.org/2000/svg" width="800" height="556" viewBox="0 0 800 556" fill="none">
<rect width="800" height="100%" fill="#ffffff" rx="12" />
<clipPath id="avatar-clip"><rect x="30" y="30" width="200" height="200" rx="8" /></clipPath>
<g clip-path="url(#avatar-clip)"><svg xmlns="http://www.w3.org/2000/svg" width="200" height="200" viewBox="0 0 200 200"><rect x="0" y="0" width="10" height="10" fill="rgb(55, 55, 55)" /><rect x="12" y="0" width="10" height="10" fill="rgb(55, 55, 55)" /><rect x="24" y="0" width="10" height="10" fill="rgb(56, 56, 56)" /><rect x="36" y="0" width="10" height="10" fill="rgb(57, 57, 57)" /><rect x="48" y="0" width="10" height="10" fill="rgb(58, 58, 58)" /><rect x="60" y="0" width="10" height="10" fill="rgb(58, 58, 58)" /><rect x="72" y="0" width="10" height="10" fill="rgb(59, 59, 59)" /><rect x="84" y="0" width="10" height="10" fill="rgb(60, 60, 60)" /><rect x="96" y="0" width="10" height="10" fill="rgb(61, 61, 61)" /><rect x="108" y="0" width="10" height="10" fill="rgb(62, 62, 62)" /><rect x="120" y="0" width="10" height="10" fill="rgb(62, 62, 62)" /><rect x="132" y="0" width="10" height="10" fill="rgb(63, 63, 63)" /><rect x="144" y="0" width="10" height="10" fill="rgb(64, 64, 64)" /><rect x="156" y="0" width="10" height="10" fill="rgb(65, 65, 65)" /><rect x="168" y="0" width="10" height="10" fill="rgb(65, 65, 65)" /><rect x="180" y="0" width="10" height="10" fill="rgb(66, 66, 66)" /><rect x="0" y="12" width="10" height="10" fill="rgb(55, 55, 55)" /><rect x="12" y="12" width="10" height="10" fill="rgb(57, 57, 57)" /><rect x="24" y="12" width="10" height="10" fill="rgb(58, 58, 58)" /><rect x="36" y="12" width="10" height="10" fill="rgb(60, 60, 60)" /><rect x="48" y="12" width="10" height="10" fill="rgb(62, 62, 62)" /><rect x="60" y="12" width="10" height="10" fill="rgb(63, 63, 63)" /><rect x="72" y="12" width="10" height="10" fill="rgb(65, 65, 65)" /><rect x="84" y="12" width="10" height="10" fill="rgb(66, 66, 66)" /><rect x="96" y="12" width="10" height="10" fill="rgb(68, 68, 68)" /><rect x="108" y="12" width="10" height="10" fill="rgb(69, 69, 69)" /><rect x="120" y="12" width="10" height="10" fill="rgb(71, 71, 71)" /><rect x="132" y="12" width="10" height="10" fill="rgb(73, 73, 73)" /><rect x="144" y="12" width="10" height="10" fill="rgb(74, 74, 74)" /><rect x="156" y="12" width="10" height="10" fill="rgb(76, 76, 76)" /><rect x="168" y="12" width="10" height="10" fill="rgb(77, 77, 77)" /><rect x="180" y="12" width="10" height="10" fill="rgb(79, 79, 79)" /><rect x="0" y="24" width="10" height="10" fill="rgb(56, 56, 56)" /><rect x="12" y="24" width="10" height="10" fill="rgb(58, 58, 58)" /><rect x="24" y="24" width="10" height="10" fill="rgb(61, 61, 61)" /><rect x="36" y="24" width="10" height="10" fill="rgb(63, 63, 63)" /><rect x="48" y="24" width="10" height="10" fill="rgb(65, 65, 65)" /><rect x="60" y="24" width="10" height="10" fill="rgb(68, 68, 68)" /><rect x="72" y="24" width="10" height="10" fill="rgb(70, 70, 70)" /><rect x="84" y="24" width="10" height="10" fill="rgb(73, 73, 73)" /><rect x="96" y="24" width="10" height="10" fill="rgb(75, 75, 75)" /><rect x="108" y="24" width="10" height="10" fill="rgb(77, 77, 77)" /><rect x="120" y="24" width="10" height="10" fill="rgb(80, 80, 80)" /><rect x="132" y="24" width="10" height="10" fill="rgb(82, 82, 82)" /><rect x="144" y="24" width="10" height="10" fill="rgb(84, 84, 84)" /><rect x="156" y="24" width="10" height="10" fill="rgb(87, 87, 87)" /><rect x="168" y="24" width="10" height="10" fill="rgb(89, 89, 89)" /><rect x="180" y="24" width="10" height="10" fill="rgb(91, 91, 91)" /><rect x="0" y="36" width="10" height="10" fill="rgb(57, 57, 57)" /><rect x="12" y="36" width="10" height="10" fill="rgb(60, 60, 60)" /><rect x="24" y="36" width="10" height="10" fill="rgb(63, 63, 63)" /><rect x="36" y="36" width="10" height="10" fill="rgb(66, 66, 66)" /><rect x="48" y="36" width="10" height="10" fill="rgb(69, 69, 69)" /><rect x="60" y="36" width="10" height="10" fill="rgb(73, 73, 73)" /><rect x="72" y="36" width="10" height="10" fill="rgb(76, 76, 76)" /><rect x="84" y="36" width="10" height="10" fill="rgb(79, 79, 79)" /><rect x="96" y="36" width="10" height="10" fill="rgb(82, 82, 82)" /><rect x="108" y="36" width="10" height="10" fill="rgb(85, 85, 85)" /><rect x="120" y="36" width="10" height="10" fill="rgb(88, 88, 88)" /><rect x="132" y="36" width="10" height="10" fill="rgb(91, 91, 91)" /><rect x="144" y="36" width="10" height="10" fill="rgb(95, 95, 95)" /><rect x="156" y="36" width="10" height="10" fill="rgb(98, 98, 98)" /><rect x="168" y="36" width="10" height="10" fill="rgb(101, 101, 101)" /><rect x="180" y="36" width="10" height="10" fill="rgb(104, 104, 104)" /><rect x="0" y="48" width="10" height="10" fill="rgb(58, 58, 58)" /><rect x="12" y="48" width="10" height="10" fill="rgb(62, 62, 62)" /><rect x="24" y="48" width="10" height="10" fill="rgb(65, 65, 65)" /><rect x="36" y="48" width="10" height="10" fill="rgb(69, 69, 69)" /><rect x="48" y="48" width="10" height="10" fill="rgb(73, 73, 73)" /><rect x="60" y="48" width="10" height="10" fill="rgb(77, 77, 77)" /><rect x="72" y="48" width="10" height="10" fill="rgb(81, 81, 81)" /><rect x="84" y="48" width="10" height="10" fill="rgb(85, 85, 85)" /><rect x="96" y="48" width="10" height="10" fill="rgb(89, 89, 89)" /><rect x="108" y="48" width="10" height="10" fill="rgb(93, 93, 93)" /><rect x="120" y="48" width="10" height="10" fill="rgb(97, 97, 97)" /><rect x="132" y="48" width="10" height="10" fill="rgb(101, 101, 101)" /><rect x="144" y="48" width="10" height="10" fill="rgb(105, 105, 105)" /><rect x="156" y="48" width="10" height="10" fill="rgb(109, 109, 109)" /><rect x="168" y="48" width="10" height="10" fill="rgb(113, 113, 113)" /><rect x="180" y="48" width="10" height="10" fill="rgb(116, 116, 116)" /><rect x="0" y="60" width="10" height="10" fill="rgb(58, 58, 58)" /><rect x="12" y="60" width="10" height="10" fill="rgb(63, 63, 63)" /><rect x="24" y="60" width="10" height="10" fill="rgb(68, 68, 68)" /><rect x="36" y="60" width="10" height="10" fill="rgb(73, 73, 73)" /><rect x="48" y="60" width="10" height="10" fill="rgb(77, 77, 77)" /><rect x="60" y="60" width="10" height="10" fill="rgb(82, 82, 82)" /><rect x="72" y="60" width="10" height="10" fill="rgb(87, 87, 87)" /><rect x="84" y="60" width="10" height="10" fill="rgb(91, 91, 91)" /><rect x="96" y="60" width="10" height="10" fill="rgb(96, 96, 96)" /><rect x="108" y="60" width="10" height="10" fill="rgb(101, 101, 101)" /><rect x="120" y="60" width="10" height="10" fill="rgb(105, 105, 105)" /><rect x="132" y="60" width="10" height="10" fill="rgb(110, 110, 110)" /><rect x="144" y="60" width="10" height="10" fill="rgb(115, 115, 115)" /><rect x="156" y="60" width="10" height="10" fill="rgb(120, 120, 120)" /><rect x="168" y="60" width="10" height="10" fill="rgb(124, 124, 124)" /><rect x="180" y="60" width="10" height="10" fill="rgb(129, 129, 129)" /><rect x="0" y="72" width="10" height="10" fill="rgb(59, 59, 59)" /><rect x="12" y="72" width="10" height="10" fill="rgb(65, 65, 65)" /><rect x="24" y="72" width="10" height="10" fill="rgb(70, 70, 70)" /><rect x="36" y="72" width="10" height="10" fill="rgb(76, 76, 76)" /><rect x="48" y="72" width="10" height="10" fill="rgb(81, 81, 81)" /><rect x="60" y="72" width="10" height="10" fill="rgb(87, 87, 87)" /><rect x="72" y="72" width="10" height="10" fill="rgb(92, 92, 92)" /><rect x="84" y="72" width="10" height="10" fill="rgb(98, 98, 98)" /><rect x="96" y="72" width="10" height="10" fill="rgb(103, 103, 103)" /><rect x="108" y="72" width="10" height="10" fill="rgb(109, 109, 109)" /><rect x="120" y="72" width="10" height="10" fill="rgb(114, 114, 114)" /><rect x="132" y="72" width="10" height="10" fill="rgb(120, 120, 120)" /><rect x="144" y="72" width="10" height="10" fill="rgb(125, 125, 125)" /><rect x="156" y="72" width="10" height="10" fill="rgb(131, 131, 131)" /><rect x="168" y="72" width="10" height="10" fill="rgb(136, 136, 136)" /><rect x="180" y="72" width="10" height="10" fill="rgb(142, 142, 142)" /><rect x="0" y="84" width="10" height="10" fill="rgb(60, 60, 60)" /><rect x="12" y="84" width="10" height="10" fill="rgb(66, 66, 66)" /><rect x="24" y="84" width="10" height="10" fill="rgb(73, 73, 73)" /><rect x="36" y="84" width="10" height="10" fill="rgb(79, 79, 79)" /><rect x="48" y="84" width="10" height="10" fill="rgb(85, 85, 85)" /><rect x="60" y="84" width="10" height="10" fill="rgb(91, 91, 91)" /><rect x="72" y="84" width="10" height="10" fill="rgb(98, 98, 98)" /><rect x="84" y="84" width="10" height="10" fill="rgb(104, 104, 104)" /><rect x="96" y="84" width="10" height="10" fill="rgb(110, 110, 110)" /><rect x="108" y="84" width="10" height="10" fill="rgb(116, 116, 116)" /><rect x="120" y="84" width="10" height="10" fill="rgb(123, 123, 123)" /><rect x="132" y="84" width="10" height="10" fill="rgb(129, 129, 129)" /><rect x="144" y="84" width="10" height="10" fill="rgb(135, 135, 135)" /><rect x="156" y="84" width="10" height="10" fill="rgb(142, 142, 142)" /><rect x="168" y="84" width="10" height="10" fill="rgb(148, 148, 148)" /><rect x="180" y="84" width="10" height="10" fill="rgb(154, 154, 154)" /><rect x="0" y="96" width="10" height="10" fill="rgb(61, 61, 61)" /><rect x="12" y="96" width="10" height="10" fill="rgb(68, 68, 68)" /><rect x="24" y="96" width="10" height="10" fill="rgb(75, 75, 75)" /><rect x="36" y="96" width="10" height="10" fill="rgb(82, 82, 82)" /><rect x="48" y="96" width="10" height="10" fill="rgb(89, 89, 89)" /><rect x="60" y="96" width="10" height="10" fill="rgb(96, 96, 96)" /><rect x="72" y="96" width="10" height="10" fill="rgb(103, 103, 103)" /><rect x="84" y="96" width="10" height="10" fill="rgb(110, 110, 110)" /><rect x="96" y="96" width="10" height="10" fill="rgb(117, 117, 117)" /><rect x="108" y="96" width="10" height="10" fill="rgb(124, 124, 124)" /><rect x="120" y="96" width="10" height="10" fill="rgb(131, 131, 131)" /><rect x="132" y="96" width="10" height="10" fill="rgb(138, 138, 138)" /><rect x="144" y="96" width="10" height="10" fill="rgb(145, 145, 145)" /><rect x="156" y="96" width="10" height="10" fill="rgb(153, 153, 153)" /><rect x="168" y="96" width="10" height="10" fill="rgb(160, 160, 160)" /><rect x="180" y="96" width="10" height="10" fill="rgb(167, 167, 167)" /><rect x="0" y="108" width="10" height="10" fill="rgb(62, 62, 62)" /><rect x="12" y="108" width="10" height="10" fill="rgb(69, 69, 69)" /><rect x="24" y="108" width="10" height="10" fill="rgb(77, 77, 77)" /><rect x="36" y="108" width="10" height="10" fill="rgb(85, 85, 85)" /><rect x="48" y="108" width="10" height="10" fill="rgb(93, 93, 93)" /><rect x="60" y="108" width="10" height="10" fill="rgb(101, 101, 101)" /><rect x="72" y="108" width="10" height="10" fill="rgb(109, 109, 109)" /><rect x="84" y="108" width="10" height="10" fill="rgb(116, 116, 116)" /><rect x="96" y="108" width="10" height="10" fill="rgb(124, 124, 124)" /><rect x="108" y="108" width="10" height="10" fill="rgb(132, 132, 132)" /><rect x="120" y="108" width="10" height="10" fill="rgb(140, 140, 140)" /><rect x="132" y="108" width="10" height="10" fill="rgb(148, 148, 148)" /><rect x="144" y="108" width="10" height="10" fill="rgb(156, 156, 156)" /><rect x="156" y="108" width="10" height="10" fill="rgb(164, 164, 164)" /><rect x="168" y="108" width="10" height="10" fill="rgb(171, 171, 171)" /><rect x="180" y="108" width="10" height="10" fill="rgb(179, 179, 179)" /><rect x="0" y="120" width="10" height="10" fill="rgb(62, 62, 62)" /><rect x="12" y="120" width="10" height="10" fill="rgb(71, 71, 71)" /><rect x="24" y="120" width="10" height="10" fill="rgb(80, 80, 80)" /><rect x="36" y="120" width="10" height="10" fill="rgb(88, 88, 88)" /><rect x="48" y="120" width="10" height="10" fill="rgb(97, 97, 97)" /><rect x="60" y="120" width="10" height="10" fill="rgb(105, 105, 105)" /><rect x="72" y="120" width="10" height="10" fill="rgb(114, 114, 114)" /><rect x="84" y="120" width="10" height="10" fill="rgb(123, 123, 123)" /><rect x="96" y="120" width="10" height="10" fill="rgb(131, 131, 131)" /><rect x="108" y="120" width="10" height="10" fill="rgb(140, 140, 140)" /><rect x="120" y="120" width="10" height="10" fill="rgb(149, 149, 149)" /><rect x="132" y="120" width="10" height="10" fill="rgb(157, 157, 157)" /><rect x="144" y="120" width="10" height="10" fill="rgb(166, 166, 166)" /><rect x="156" y="120" width="10" height="10" fill="rgb(175, 175, 175)" /><rect x="168" y="120" width="10" height="10" fill="rgb(183, 183, 183)" /><rect x="180" y="120" width="10" height="10" fill="rgb(192, 192, 192)" /><rect x="0" y="132" width="10" height="10" fill="rgb(63, 63, 63)" /><rect x="12" y="132" width="10" height="10" fill="rgb(73, 73, 73)" /><rect x="24" y="132" width="10" height="10" fill="rgb(82, 82, 82)" /><rect x="36" y="132" width="10" height="10" fill="rgb(91, 91, 91)" /><rect x="48" y="132" width="10" height="10" fill="rgb(101, 101, 101)" /><rect x="60" y="132" width="10" height="10" fill="rgb(110, 110, 110)" /><rect x="72" y="132" width="10" height="10" fill="rgb(120, 120, 120)" /><rect x="84" y="132" width="10" height="10" fill="rgb(129, 129, 129)" /><rect x="96" y="132" width="10" height="10" fill="rgb(138, 138, 138)" /><rect x="108" y="132" width="10" height="10" fill="rgb(148, 148, 148)" /><rect x="120" y="132" width="10" height="10" fill="rgb(157, 157, 157)" /><rect x="132" y="132" width="10" height="10" fill="rgb(167, 167, 167)" /><rect x="144" y="132" width="10" height="10" fill="rgb(176, 176, 176)" /><rect x="156" y="132" width="10" height="10" fill="rgb(185, 185, 185)" /><rect x="168" y="132" width="10" height="10" fill="rgb(195, 195, 195)" /><rect x="180" y="132" width="10" height="10" fill="rgb(204, 204, 204)" /><rect x="0" y="144" width="10" height="10" fill="rgb(64, 64, 64)" /><rect x="12" y="144" width="10" height="10" fill="rgb(74, 74, 74)" /><rect x="24" y="144" width="10" height="10" fill="rgb(84, 84, 84)" /><rect x="36" y="144" width="10" height="10" fill="rgb(95, 95, 95)" /><rect x="48" y="144" width="10" height="10" fill="rgb(105, 105, 105)" /><rect x="60" y="144" width="10" height="10" fill="rgb(115, 115, 115)" /><rect x="72" y="144" width="10" height="10" fill="rgb(125, 125, 125)" /><rect x="84" y="144" width="10" height="10" fill="rgb(135, 135, 135)" /><rect x="96" y="144" width="10" height="10" fill="rgb(145, 145, 145)" /><rect x="108" y="144" width="10" height="10" fill="rgb(156, 156, 156)" /><rect x="120" y="144" width="10" height="10" fill="rgb(166, 166, 166)" /><rect x="132" y="144" width="10" height="10" fill="rgb(176, 176, 176)" /><rect x="144" y="144" width="10" height="10" fill="rgb(186, 186, 186)" /><rect x="156" y="144" width="10" height="10" fill="rgb(196, 196, 196)" /><rect x="168" y="144" width="10" height="10" fill="rgb(207, 207, 207)" /><rect x="180" y="144" width="10" height="10" fill="rgb(217, 217, 217)" /><rect x="0" y="156" width="10" height="10" fill="rgb(65, 65, 65)" /><rect x="12" y="156" width="10" height="10" fill="rgb(76, 76, 76)" /><rect x="24" y="156" width="10" height="10" fill="rgb(87, 87, 87)" /><rect x="36" y="156" width="10" height="10" fill="rgb(98, 98, 98)" /><rect x="48" y="156" width="10" height="10" fill="rgb(109, 109, 109)" /><rect x="60" y="156" width="10" height="10" fill="rgb(120, 120, 120)" /><rect x="72" y="156" width="10" height="10" fill="rgb(131, 131, 131)" /><rect x="84" y="156" width="10" height="10" fill="rgb(142, 142, 142)" /><rect x="96" y="156" width="10" height="10" fill="rgb(153, 153, 153)" /><rect x="108" y="156" width="10" height="10" fill="rgb(164, 164, 164)" /><rect x="120" y="156" width="10" height="10" fill="rgb(175, 175, 175)" /><rect x="132" y="156" width="10" height="10" fill="rgb(185, 185, 185)" /><rect x="144" y="156" width="10" height="10" fill="rgb(196, 196, 196)" /><rect x="156" y="156" width="10" height="10" fill="rgb(207, 207, 207)" /><rect x="168" y="156" width="10" height="10" fill="rgb(218, 218, 218)" /><rect x="180" y="156" width="10" height="10" fill="rgb(229, 229, 229)" /><rect x="0" y="168" width="10" height="10" fill="rgb(65, 65, 65)" /><rect x="12" y="168" width="10" height="10" fill="rgb(77, 77, 77)" /><rect x="24" y="168" width="10" height="10" fill="rgb(89, 89, 89)" /><rect x="36" y="168" width="10" height="10" fill="rgb(101, 101, 101)" /><rect x="48" y="168" width="10" height="10" fill="rgb(113, 113, 113)" /><rect x="60" y="168" width="10" height="10" fill="rgb(124, 124, 124)" /><rect x="72" y="168" width="10" height="10" fill="rgb(136, 136, 136)" /><rect x="84" y="168" width="10" height="10" fill="rgb(148, 148, 148)" /><rect x="96" y="168" width="10" height="10" fill="rgb(160, 160, 160)" /><rect x="108" y="168" width="10" height="10" fill="rgb(171, 171, 171)" /><rect x="120" y="168" width="10" height="10" fill="rgb(183, 183, 183)" /><rect x="132" y="168" width="10" height="10" fill="rgb(195, 195, 195)" /><rect x="144" y="168" width="10" height="10" fill="rgb(207, 207, 207)" /><rect x="156" y="168" width="10" height="10" fill="rgb(218, 218, 218)" /><rect x="168" y="168" width="10" height="10" fill="rgb(230, 230, 230)" /><rect x="180" y="168" width="10" height="10" fill="rgb(242, 242, 242)" /><rect x="0" y="180" width="10" height="10" fill="rgb(66, 66, 66)" /><rect x="12" y="180" width="10" height="10" fill="rgb(79, 79, 79)" /><rect x="24" y="180" width="10" height="10" fill="rgb(91, 91, 91)" /><rect x="36" y="180" width="10" height="10" fill="rgb(104, 104, 104)" /><rect x="48" y="180" width="10" height="10" fill="rgb(116, 116, 116)" /><rect x="60" y="180" width="10" height="10" fill="rgb(129, 129, 129)" /><rect x="72" y="180" width="10" height="10" fill="rgb(142, 142, 142)" /><rect x="84" y="180" width="10" height="10" fill="rgb(154, 154, 154)" /><rect x="96" y="180" width="10" height="10" fill="rgb(167, 167, 167)" /><rect x="108" y="180" width="10" height="10" fill="rgb(179, 179, 179)" /><rect x="120" y="180" width="10" height="10" fill="rgb(192, 192, 192)" /><rect x="132" y="180" width="10" height="10" fill="rgb(204, 204, 204)" /><rect x="144" y="180" width="10" height="10" fill="rgb(217, 217, 217)" /><rect x="156" y="180" width="10" height="10" fill="rgb(229, 229, 229)" /><rect x="168" y="180" width="10" height="10" fill="rgb(242, 242, 242)" /><rect x="180" y="180" width="10" height="10" fill="rgb(255, 255, 255)" /></svg></g>
<rect x="30" y="30" width="200" height="200" rx="8" fill="none" stroke="#d0d7de" stroke-width="1" />
<text x="254" y="38" fill="#24292f" font-family="monospace" font-size="22" font-weight="bold">Ashesh Bandopadhyay</text>
<text x="254" y="66" fill="#0969da" font-family="monospace" font-size="14">@benedicti0n</text>
<line x1="254" y1="88" x2="770" y2="88" stroke="#d0d7de" stroke-width="1" />
<text x="254" y="104" fill="#656d76" font-family="monospace" font-size="13">OS:</text>
<text x="334" y="104" fill="#24292f" font-family="monospace" font-size="13">macOS</text>
<text x="254" y="122" fill="#656d76" font-family="monospace" font-size="13">Host:</text>
<text x="334" y="122" fill="#24292f" font-family="monospace" font-size="13">github.com</text>
<text x="254" y="140" fill="#656d76" font-family="monospace" font-size="13">Kernel:</text>
<text x="334" y="140" fill="#24292f" font-family="monospace" font-size="13">Darwin</text>
<text x="254" y="158" fill="#656d76" font-family="monospace" font-size="13">IDE:</text>
<text x="334" y="158" fill="#24292f" font-family="monospace" font-size="13">VS Code</text>
<text x="254" y="182" fill="#24292f" font-family="monospace" font-size="12">hello everyNyan ~</text>
<rect x="30" y="250" width="740" height="34" rx="6" fill="#f6f8fa" />
<text x="42" y="272" fill="#656d76" font-family="monospace" font-size="12">Languages:</text>
<text x="140" y="272" fill="#24292f" font-family="monospace" font-size="12">TypeScript  Python</text>
<text x="30" y="300" fill="#0969da" font-family="monospace" font-size="15" font-weight="bold">📊 GitHub Stats</text>
<rect x="30" y="324" width="176" height="54" rx="6" fill="#f6f8fa" />
<text x="118" y="348" fill="#656d76" font-family="monospace" font-size="11" text-anchor="middle">Followers</text>
<text x="118" y="368" fill="#24292f" font-family="monospace" font-size="16" font-weight="bold" text-anchor="middle">57</text>
<rect x="218" y="324" width="176" height="54" rx="6" fill="#f6f8fa" />
<text x="306" y="348" fill="#656d76" font-family="monospace" font-size="11" text-anchor="middle">Following</text>
<text x="306" y="368" fill="#24292f" font-family="monospace" font-size="16" font-weight="bold" text-anchor="middle">51</text>
<rect x="406" y="324" width="176" height="54" rx="6" fill="#f6f8fa" />
<text x="494" y="348" fill="#656d76" font-family="monospace" font-size="11" text-anchor="middle">Repos</text>
<text x="494" y="368" fill="#24292f" font-family="monospace" font-size="16" font-weight="bold" text-anchor="middle">39</text>
<rect x="594" y="324" width="176" height="54" rx="6" fill="#f6f8fa" />
<text x="682" y="348" fill="#656d76" font-family="monospace" font-size="11" text-anchor="middle">Stars</text>
<text x="682" y="368" fill="#24292f" font-family="monospace" font-size="16" font-weight="bold" text-anchor="middle">10</text>
<text x="30" y="396" fill="#656d76" font-family="monospace" font-size="12">Top Languages:</text>
<rect x="30" y="408" width="474.1926644397655" height="12" rx="3" fill="#3178c6" />
<rect x="504.1926644397655" y="408" width="138.34065452646365" height="12" rx="3" fill="#563d7c" />
<rect x="642.5333189662292" y="408" width="107.02872686745482" height="12" rx="3" fill="#f1e05a" />
<rect x="749.562045833684" y="408" width="10.825374403326038" height="12" rx="3" fill="#e34c26" />
<rect x="760.38742023701" y="408" width="9.612579762989972" height="12" rx="3" fill="#8b949e" />
<circle cx="30" cy="428" r="4" fill="#3178c6" />
<text x="40" y="432" fill="#24292f" font-family="monospace" font-size="11">TypeScript</text>
<circle cx="30" cy="446" r="4" fill="#563d7c" />
<text x="40" y="450" fill="#24292f" font-family="monospace" font-size="11">CSS</text>
<circle cx="30" cy="464" r="4" fill="#f1e05a" />
<text x="40" y="468" fill="#24292f" font-family="monospace" font-size="11">JavaScript</text>
<circle cx="30" cy="482" r="4" fill="#e34c26" />
<text x="40" y="486" fill="#24292f" font-family="monospace" font-size="11">HTML</text>
<circle cx="30" cy="500" r="4" fill="#8b949e" />
<text x="40" y="504" fill="#24292f" font-family="monospace" font-size="11">Swift</text>
<text x="30" y="532" fill="#656d76" font-family="monospace" font-size="10">Generated by ReadMeForge • Updates daily</text>
</svg>